<?xml version="1.0" encoding="UTF-8"?> <!-- Generator: Adobe Illustrator 24.0.0, SVG Export Plug-In . SVG Version: 6.00 Build 0) --> <svg xmlns="http://www.w3.org/2000/svg" xmlns:xlink="http://www.w3.org/1999/xlink" id="Layer_1" x="0px" y="0px" width="279px" height="85px" viewBox="0 0 279 85" style="enable-background:new 0 0 279 85;" xml:space="preserve"> <style type="text/css"> .st0{fill:#192752;} .st1{fill:url(#SVGID_1_);} </style> <g> <path class="st0" d="M0,76.18h3.12c0.76,0,1.76,0,2.27,0.31c0.57,0.34,1.01,0.95,1.01,1.79c0,0.91-0.48,1.6-1.28,1.92v0.02 c1.06,0.22,1.64,1.01,1.64,2.07c0,1.26-0.9,2.47-2.61,2.47H0V76.18z M1.14,79.87h2.29c1.3,0,1.83-0.47,1.83-1.37 c0-1.19-0.84-1.36-1.83-1.36H1.14V79.87z M1.14,83.81H4c0.99,0,1.61-0.6,1.61-1.54c0-1.12-0.9-1.43-1.87-1.43h-2.6V83.81z"></path> <path class="st0" d="M15.1,81.67c0,2.17-1.24,3.31-3.38,3.31c-2.21,0-3.53-1.02-3.53-3.31v-5.49h1.14v5.49 c0,1.52,0.87,2.35,2.38,2.35c1.44,0,2.24-0.83,2.24-2.35v-5.49h1.14L15.1,81.67L15.1,81.67z"></path> <path class="st0" d="M16.98,76.18h1.14v8.59h-1.14V76.18z"></path> <path class="st0" d="M20.05,76.18h1.14v7.63h4.55v0.96h-5.69C20.05,84.77,20.05,76.18,20.05,76.18z"></path> <path class="st0" d="M26.74,76.18h2.95c2.65,0,4.13,1.32,4.13,4.09c0,2.88-1.26,4.5-4.13,4.5h-2.95 C26.74,84.77,26.74,76.18,26.74,76.18z M27.88,83.81h1.9c0.78,0,2.89-0.22,2.89-3.38c0-2.05-0.76-3.28-2.86-3.28h-1.93 C27.88,77.15,27.88,83.81,27.88,83.81z"></path> <path class="st0" d="M35.26,76.18h1.14v8.59h-1.14V76.18z"></path> <path class="st0" d="M38.31,76.18h1.22l4.52,6.97h0.02v-6.97h1.08v8.59H43.9l-4.49-6.9H39.4v6.9h-1.08L38.31,76.18L38.31,76.18z"></path> <path class="st0" d="M53.44,83.7c-0.66,0.9-1.75,1.28-2.76,1.28c-2.56,0-4.09-2.09-4.09-4.33c0-2.5,1.37-4.67,4.09-4.67 c1.88,0,3.37,0.84,3.69,2.85h-1.14c-0.23-1.3-1.28-1.89-2.55-1.89c-2.08,0-2.95,1.8-2.95,3.65c0,1.79,1.03,3.43,2.95,3.43 c1.77,0,2.83-1.24,2.76-2.8H50.7v-0.96h3.77v4.52h-0.72L53.44,83.7z"></path> </g> <g> <path class="st0" d="M64.24,77.14h-2.86v-0.96h6.87v0.96h-2.86v7.63h-1.14v-7.63H64.24z"></path> <path class="st0" d="M69.2,76.18h1.14v3.69h4.52v-3.69H76v8.59h-1.14v-3.93h-4.52v3.93H69.2V76.18z"></path> <path class="st0" d="M77.89,76.18h5.93v0.96h-4.79v2.73h4.46v0.96h-4.46v2.97h4.83v0.96h-5.97V76.18z"></path> </g> <g> <path class="st0" d="M90.77,76.18h1.56l2.71,7.22l2.72-7.22h1.56v8.59h-1.08v-7.15h-0.02l-2.68,7.15h-0.97l-2.68-7.15h-0.02v7.15 h-1.08v-8.59H90.77z"></path> <path class="st0" d="M101.28,76.18h1.14v8.59h-1.14V76.18z"></path> <path class="st0" d="M110.39,78.77c-0.24-1.22-1.22-1.83-2.41-1.83c-2.05,0-2.91,1.68-2.91,3.48c0,1.96,0.87,3.6,2.92,3.6 c1.5,0,2.37-1.06,2.48-2.48h1.14c-0.22,2.14-1.55,3.44-3.72,3.44c-2.67,0-3.97-1.97-3.97-4.48c0-2.49,1.42-4.52,4.07-4.52 c1.79,0,3.27,0.96,3.54,2.79H110.39z"></path> <path class="st0" d="M113.03,76.18h4.04c1.61,0,2.61,0.88,2.61,2.25c0,1.03-0.46,1.89-1.49,2.18v0.02c1,0.19,1.2,0.93,1.29,1.77 c0.07,0.84,0.02,1.78,0.51,2.37h-1.28c-0.33-0.35-0.14-1.28-0.31-2.12c-0.12-0.84-0.33-1.55-1.43-1.55h-2.79v3.67h-1.14v-8.59 H113.03z M116.56,80.14c1.07,0,1.99-0.28,1.99-1.53c0-0.84-0.46-1.47-1.53-1.47h-2.84v3H116.56z"></path> <path class="st0" d="M124.91,75.98c2.73,0,4.12,2.17,4.12,4.5s-1.38,4.5-4.12,4.5s-4.11-2.17-4.11-4.5 C120.79,78.14,122.18,75.98,124.91,75.98z M124.91,84.01c2.09,0,2.97-1.8,2.97-3.54c0-1.73-0.88-3.54-2.97-3.54 c-2.09,0-2.97,1.8-2.97,3.54S122.82,84.01,124.91,84.01z"></path> <path class="st0" d="M135.39,78.69c-0.13-1.23-0.95-1.76-2.13-1.76c-0.96,0-1.93,0.35-1.93,1.47c0,1.06,1.37,1.22,2.76,1.53 c1.37,0.31,2.74,0.79,2.74,2.48c0,1.83-1.79,2.56-3.36,2.56c-1.93,0-3.55-0.94-3.55-3.03H131c0,1.44,1.2,2.07,2.5,2.07 c1.03,0,2.18-0.33,2.18-1.56c0-1.18-1.37-1.38-2.74-1.68c-1.37-0.3-2.76-0.7-2.76-2.27c0-1.74,1.55-2.51,3.12-2.51 c1.76,0,3.09,0.83,3.16,2.72h-1.07V78.69z"></path> <path class="st0" d="M144.26,78.77c-0.24-1.22-1.22-1.83-2.41-1.83c-2.05,0-2.91,1.68-2.91,3.48c0,1.96,0.87,3.6,2.92,3.6 c1.5,0,2.37-1.06,2.48-2.48h1.14c-0.22,2.14-1.55,3.44-3.72,3.44c-2.67,0-3.97-1.97-3.97-4.48c0-2.49,1.42-4.52,4.07-4.52 c1.79,0,3.27,0.96,3.54,2.79H144.26z"></path> <path class="st0" d="M150.54,75.98c2.73,0,4.11,2.17,4.11,4.5s-1.38,4.5-4.11,4.5s-4.11-2.17-4.11-4.5 C146.42,78.14,147.81,75.98,150.54,75.98z M150.54,84.01c2.09,0,2.97-1.8,2.97-3.54c0-1.73-0.88-3.54-2.97-3.54 s-2.97,1.8-2.97,3.54C147.57,82.21,148.45,84.01,150.54,84.01z"></path> <path class="st0" d="M156.05,76.18h3.77c1.71,0,2.63,0.95,2.63,2.54s-0.93,2.55-2.63,2.54h-2.62v3.51h-1.14v-8.59H156.05z M157.19,80.29h2.24c1.29,0.01,1.88-0.55,1.88-1.58c0-1.02-0.59-1.58-1.88-1.58h-2.24V80.29z"></path> <path class="st0" d="M163.85,76.18h5.93v0.96h-4.79v2.73h4.46v0.96h-4.46v2.97h4.83v0.96h-5.97V76.18z"></path> <path class="st0" d="M176.17,78.69c-0.13-1.23-0.95-1.76-2.13-1.76c-0.96,0-1.92,0.35-1.92,1.47c0,1.06,1.37,1.22,2.75,1.53 c1.37,0.31,2.74,0.79,2.74,2.48c0,1.83-1.79,2.56-3.36,2.56c-1.92,0-3.55-0.94-3.55-3.03h1.08c0,1.44,1.2,2.07,2.5,2.07 c1.03,0,2.18-0.33,2.18-1.56c0-1.18-1.37-1.38-2.74-1.68c-1.37-0.3-2.76-0.7-2.76-2.27c0-1.74,1.55-2.51,3.12-2.51 c1.76,0,3.09,0.83,3.16,2.72h-1.07V78.69z"></path> </g> <g> <path class="st0" d="M188.65,75.98c2.73,0,4.11,2.17,4.11,4.5s-1.38,4.5-4.11,4.5s-4.11-2.17-4.11-4.5 C184.53,78.14,185.91,75.98,188.65,75.98z M188.65,84.01c2.09,0,2.97-1.8,2.97-3.54c0-1.73-0.88-3.54-2.97-3.54 s-2.97,1.8-2.97,3.54C185.67,82.21,186.55,84.01,188.65,84.01z"></path> <path class="st0" d="M194.16,76.18h5.64v0.96h-4.5v2.73h3.95v0.96h-3.95v3.93h-1.14V76.18z"></path> </g> <g> <path class="st0" d="M209.58,77.14h-2.86v-0.96h6.87v0.96h-2.86v7.63h-1.14L209.58,77.14L209.58,77.14z"></path> <path class="st0" d="M218.17,75.98c2.73,0,4.11,2.17,4.11,4.5s-1.38,4.5-4.11,4.5s-4.12-2.17-4.12-4.5 C214.06,78.14,215.44,75.98,218.17,75.98z M218.17,84.01c2.09,0,2.97-1.8,2.97-3.54c0-1.73-0.88-3.54-2.97-3.54 s-2.97,1.8-2.97,3.54S216.08,84.01,218.17,84.01z"></path> <path class="st0" d="M223.71,76.18h1.56l2.71,7.22l2.72-7.22h1.56v8.59h-1.08v-7.15h-0.02l-2.68,7.15h-0.97l-2.68-7.15h-0.02v7.15 h-1.08v-8.59H223.71z"></path> <path class="st0" d="M237.8,75.98c2.73,0,4.11,2.17,4.11,4.5s-1.38,4.5-4.11,4.5s-4.12-2.17-4.12-4.5 C233.68,78.14,235.07,75.98,237.8,75.98z M237.8,84.01c2.09,0,2.97-1.8,2.97-3.54c0-1.73-0.88-3.54-2.97-3.54s-2.97,1.8-2.97,3.54 S235.71,84.01,237.8,84.01z"></path> <path class="st0" d="M243.31,76.18h4.04c1.61,0,2.61,0.88,2.61,2.25c0,1.03-0.46,1.89-1.49,2.18v0.02c1,0.19,1.2,0.93,1.29,1.77 c0.07,0.84,0.02,1.78,0.51,2.37h-1.28c-0.32-0.35-0.14-1.28-0.31-2.12c-0.12-0.84-0.32-1.55-1.43-1.55h-2.79v3.67h-1.14 L243.31,76.18L243.31,76.18z M246.84,80.14c1.07,0,1.99-0.28,1.99-1.53c0-0.84-0.46-1.47-1.53-1.47h-2.84v3H246.84z"></path> <path class="st0" d="M251.55,76.18h4.04c1.61,0,2.61,0.88,2.61,2.25c0,1.03-0.46,1.89-1.49,2.18v0.02c1,0.19,1.2,0.93,1.29,1.77 c0.07,0.84,0.02,1.78,0.51,2.37h-1.28c-0.32-0.35-0.14-1.28-0.31-2.12c-0.12-0.84-0.32-1.55-1.43-1.55h-2.79v3.67h-1.14v-8.59 H251.55z M255.08,80.14c1.07,0,1.99-0.28,1.99-1.53c0-0.84-0.46-1.47-1.53-1.47h-2.84v3H255.08z"></path> <path class="st0" d="M263.43,75.98c2.73,0,4.11,2.17,4.11,4.5s-1.38,4.5-4.11,4.5c-2.73,0-4.12-2.17-4.12-4.5 C259.31,78.14,260.7,75.98,263.43,75.98z M263.43,84.01c2.09,0,2.97-1.8,2.97-3.54c0-1.73-0.88-3.54-2.97-3.54s-2.97,1.8-2.97,3.54 S261.34,84.01,263.43,84.01z"></path> <path class="st0" d="M276.7,84.77h-1.19l-1.96-7.22h-0.02l-1.99,7.22h-1.19l-2.2-8.59h1.17l1.68,7.15h0.02l1.92-7.15h1.24l1.9,7.15 h0.02l1.74-7.15H279L276.7,84.77z"></path> </g> <g> <path class="st0" d="M32.45,17.1c0,0.18-0.02,0.44-0.05,0.78s-0.08,0.71-0.15,1.12c-0.07,0.41-0.15,0.82-0.25,1.23 c-0.1,0.42-0.23,0.8-0.37,1.15c-0.15,0.35-0.31,0.64-0.49,0.86c-0.18,0.23-0.37,0.34-0.57,0.34c-0.32,0-0.71-0.14-1.18-0.42 c-0.47-0.28-1.05-0.59-1.74-0.91c-0.69-0.33-1.49-0.63-2.42-0.91c-0.92-0.28-1.97-0.42-3.14-0.42c-1.22,0-2.25,0.17-3.09,0.51 c-0.85,0.34-1.54,0.78-2.08,1.34s-0.94,1.17-1.2,1.86s-0.39,1.38-0.39,2.08c0,0.81,0.2,1.53,0.61,2.15 c0.41,0.62,0.95,1.19,1.62,1.72c0.68,0.53,1.45,1.04,2.32,1.54c0.87,0.5,1.75,1.01,2.64,1.55s1.77,1.13,2.64,1.77 c0.87,0.64,1.64,1.39,2.32,2.23s1.22,1.81,1.62,2.91c0.41,1.09,0.61,2.35,0.61,3.77c0,2.12-0.43,4.08-1.28,5.9 c-0.86,1.81-2.07,3.39-3.63,4.73c-1.57,1.34-3.46,2.39-5.68,3.16s-4.68,1.15-7.39,1.15c-1.47,0-2.82-0.12-4.06-0.36 s-2.34-0.52-3.3-0.86s-1.76-0.69-2.42-1.06c-0.65-0.37-1.14-0.73-1.45-1.06C0.16,54.58,0,54.08,0,53.4c0-0.18,0.02-0.45,0.07-0.81 c0.04-0.36,0.11-0.75,0.19-1.17s0.17-0.85,0.29-1.28c0.11-0.44,0.25-0.84,0.41-1.2s0.33-0.65,0.52-0.88s0.4-0.34,0.63-0.34 c0.38,0,0.84,0.18,1.37,0.52c0.53,0.35,1.19,0.73,1.98,1.15s1.72,0.81,2.81,1.17c1.08,0.36,2.38,0.54,3.89,0.54 c1.33,0,2.5-0.17,3.5-0.51s1.84-0.8,2.52-1.39s1.19-1.27,1.54-2.04c0.35-0.78,0.52-1.63,0.52-2.55c0-0.83-0.2-1.57-0.61-2.2 s-0.94-1.21-1.61-1.74c-0.67-0.53-1.42-1.03-2.26-1.5c-0.85-0.47-1.71-0.98-2.59-1.52s-1.74-1.13-2.59-1.76 c-0.85-0.63-1.6-1.37-2.26-2.21c-0.67-0.84-1.2-1.82-1.61-2.92c-0.41-1.1-0.61-2.39-0.61-3.85c0-2.03,0.41-3.9,1.22-5.61 c0.81-1.71,1.94-3.18,3.38-4.41s3.17-2.19,5.17-2.87c2.01-0.69,4.21-1.03,6.62-1.03c1.13,0,2.2,0.08,3.21,0.25s1.94,0.38,2.77,0.64 s1.54,0.55,2.13,0.86c0.59,0.32,0.99,0.58,1.22,0.79c0.22,0.21,0.39,0.44,0.49,0.68C32.4,16.44,32.45,16.74,32.45,17.1z"></path> <path class="st0" d="M72.38,15.17c0,0.16-0.02,0.41-0.05,0.76c-0.03,0.35-0.09,0.74-0.17,1.17s-0.18,0.87-0.3,1.33 s-0.27,0.88-0.44,1.27c-0.17,0.38-0.37,0.7-0.61,0.95c-0.24,0.25-0.49,0.37-0.76,0.37H59.06l-7.03,35.25 c-0.07,0.23-0.19,0.43-0.37,0.61s-0.46,0.33-0.83,0.44c-0.37,0.11-0.85,0.2-1.42,0.27s-1.3,0.1-2.18,0.1 c-0.86,0-1.57-0.03-2.13-0.1s-1-0.16-1.3-0.27s-0.51-0.26-0.61-0.44s-0.13-0.38-0.08-0.61l7.03-35.25H39.25 c-0.34,0-0.57-0.12-0.69-0.37s-0.19-0.59-0.19-1.01c0-0.18,0.02-0.44,0.05-0.79s0.09-0.74,0.17-1.18c0.08-0.44,0.18-0.89,0.3-1.35 c0.12-0.46,0.28-0.88,0.46-1.27c0.18-0.38,0.38-0.69,0.61-0.93c0.23-0.24,0.47-0.35,0.74-0.35h30.82c0.27,0,0.48,0.12,0.63,0.37 C72.3,14.37,72.38,14.72,72.38,15.17z"></path> <path class="st0" d="M106.98,23.28c0,1.44-0.2,2.87-0.59,4.29c-0.39,1.42-1.02,2.76-1.88,4.02c-0.86,1.26-1.97,2.4-3.33,3.41 s-3.02,1.83-4.99,2.43c1.08,0.43,1.99,1.28,2.72,2.55s1.34,3.01,1.81,5.22l1.79,8.89c0.09,0.5,0.16,0.94,0.22,1.34 c0.06,0.39,0.08,0.73,0.08,1c0,0.23-0.07,0.42-0.22,0.57c-0.15,0.16-0.41,0.29-0.79,0.39s-0.91,0.17-1.57,0.22 c-0.67,0.05-1.5,0.07-2.52,0.07c-0.95,0-1.71-0.03-2.28-0.08c-0.57-0.06-1.02-0.15-1.34-0.27s-0.52-0.29-0.63-0.49 c-0.1-0.2-0.18-0.44-0.22-0.71l-1.69-9.7c-0.18-1.13-0.42-2.12-0.73-2.98c-0.3-0.86-0.69-1.57-1.17-2.15 c-0.47-0.58-1.05-1-1.74-1.28c-0.69-0.28-1.5-0.42-2.45-0.42h-2.77l-3.35,16.7c-0.05,0.23-0.16,0.43-0.34,0.61 c-0.18,0.18-0.46,0.33-0.83,0.44c-0.37,0.11-0.85,0.2-1.44,0.25c-0.59,0.06-1.31,0.08-2.16,0.08c-0.86,0-1.56-0.03-2.11-0.08 c-0.55-0.06-0.99-0.14-1.3-0.25c-0.32-0.11-0.53-0.25-0.64-0.42s-0.14-0.38-0.07-0.62l7.98-39.75c0.18-0.99,0.58-1.71,1.2-2.15 c0.62-0.44,1.34-0.66,2.15-0.66h11.73c2.05,0,3.9,0.19,5.56,0.57c1.66,0.38,3.07,0.97,4.24,1.76c1.17,0.79,2.07,1.78,2.7,2.97 C106.67,20.25,106.98,21.66,106.98,23.28z M97.45,24.94c0-0.63-0.11-1.22-0.32-1.76s-0.56-1.01-1.03-1.4s-1.09-0.7-1.84-0.91 c-0.76-0.21-1.66-0.32-2.72-0.32H86.5l-2.47,12.4h4.22c1.69,0,3.12-0.24,4.29-0.73c1.17-0.48,2.12-1.11,2.84-1.88 c0.72-0.77,1.24-1.62,1.57-2.55C97.29,26.86,97.45,25.91,97.45,24.94z"></path> <path class="st0" d="M151.53,28.39c0,1.98-0.18,4.1-0.54,6.35s-0.94,4.49-1.74,6.71s-1.85,4.34-3.16,6.37s-2.9,3.81-4.77,5.36 c-1.87,1.54-4.07,2.78-6.59,3.7c-2.52,0.92-5.4,1.39-8.62,1.39c-2.73,0-5.13-0.3-7.22-0.91c-2.08-0.61-3.84-1.54-5.27-2.81 c-1.43-1.26-2.51-2.85-3.24-4.77c-0.73-1.91-1.1-4.17-1.1-6.76c0-2.12,0.19-4.33,0.56-6.64c0.37-2.31,0.97-4.57,1.79-6.79 s1.9-4.33,3.23-6.34s2.93-3.77,4.8-5.31c1.87-1.53,4.06-2.74,6.56-3.63s5.34-1.34,8.52-1.34c2.73,0,5.13,0.31,7.22,0.93 c2.08,0.62,3.84,1.57,5.26,2.84s2.5,2.88,3.23,4.82C151.17,23.5,151.53,25.77,151.53,28.39z M142.14,29.23 c0-1.37-0.15-2.62-0.46-3.73c-0.3-1.12-0.79-2.06-1.47-2.82c-0.68-0.77-1.56-1.36-2.65-1.77c-1.09-0.42-2.43-0.63-4-0.63 c-1.96,0-3.68,0.38-5.17,1.13c-1.49,0.76-2.78,1.74-3.89,2.96c-1.1,1.22-2.03,2.61-2.77,4.17c-0.74,1.57-1.34,3.16-1.79,4.77 c-0.45,1.61-0.77,3.18-0.96,4.71s-0.29,2.87-0.29,4.02c0,1.4,0.15,2.65,0.46,3.75c0.3,1.1,0.8,2.03,1.49,2.79 c0.69,0.75,1.58,1.33,2.67,1.74s2.44,0.61,4.04,0.61c1.94,0,3.65-0.37,5.14-1.11s2.78-1.72,3.87-2.92 c1.09-1.21,2.01-2.59,2.75-4.14s1.34-3.13,1.79-4.73s0.77-3.17,0.96-4.7C142.04,31.79,142.14,30.43,142.14,29.23z"></path> <path class="st0" d="M188.93,22.68c0,1.33-0.19,2.59-0.56,3.77s-0.91,2.26-1.62,3.24s-1.57,1.85-2.57,2.6 c-1,0.76-2.12,1.36-3.36,1.81c0.99,0.18,1.9,0.5,2.74,0.95c0.83,0.45,1.55,1.03,2.15,1.72c0.6,0.7,1.06,1.53,1.39,2.48 c0.33,0.96,0.49,2.03,0.49,3.23c0,1.08-0.15,2.2-0.44,3.36c-0.29,1.16-0.76,2.29-1.39,3.4c-0.63,1.1-1.45,2.16-2.47,3.16 c-1.01,1-2.24,1.88-3.67,2.64c-1.43,0.75-3.08,1.35-4.95,1.79c-1.87,0.44-4.04,0.66-6.52,0.66h-12.13c-0.92,0-1.59-0.23-2.01-0.68 s-0.52-1.16-0.32-2.13l7.64-38.13c0.18-0.99,0.58-1.71,1.2-2.15s1.34-0.66,2.15-0.66h10.51c2.32,0,4.33,0.18,6.02,0.54 s3.11,0.91,4.26,1.64c1.15,0.73,2.02,1.66,2.6,2.77S188.93,21.14,188.93,22.68z M178.29,42.92c0-1.44-0.54-2.58-1.61-3.41 c-1.07-0.83-2.78-1.25-5.12-1.25h-5.92l-2.47,12.44h6.29c1.6,0,2.95-0.23,4.04-0.68s1.99-1.04,2.7-1.76 c0.71-0.72,1.23-1.55,1.57-2.49C178.12,44.84,178.29,43.89,178.29,42.92z M179.77,24.33c0-0.63-0.11-1.18-0.34-1.66 c-0.23-0.47-0.56-0.88-1.01-1.22s-1.02-0.6-1.71-0.78s-1.56-0.27-2.62-0.27h-4.83l-2.3,11.36h5c1.46,0,2.68-0.23,3.65-0.69 c0.97-0.46,1.76-1.06,2.38-1.79c0.62-0.73,1.07-1.54,1.35-2.42C179.63,25.99,179.77,25.14,179.77,24.33z"></path> <path class="st0" d="M225,15.04c0,0.14-0.02,0.37-0.05,0.71c-0.03,0.34-0.08,0.72-0.15,1.13c-0.07,0.42-0.16,0.85-0.27,1.3 c-0.11,0.45-0.25,0.86-0.42,1.23c-0.17,0.37-0.37,0.68-0.61,0.93c-0.23,0.25-0.49,0.37-0.76,0.37h-15.61l-2.16,10.68h13.25 c0.32,0,0.54,0.11,0.68,0.34c0.13,0.23,0.2,0.54,0.2,0.95c0,0.16-0.02,0.4-0.05,0.73c-0.03,0.33-0.08,0.7-0.15,1.12 c-0.07,0.42-0.16,0.84-0.27,1.27s-0.25,0.82-0.42,1.18s-0.37,0.65-0.59,0.88c-0.23,0.23-0.47,0.34-0.74,0.34h-13.22l-2.5,12.34 h15.82c0.27,0,0.47,0.12,0.61,0.36s0.2,0.58,0.2,1.03c0,0.16-0.01,0.41-0.03,0.74c-0.02,0.34-0.07,0.72-0.15,1.13 c-0.08,0.42-0.17,0.84-0.29,1.27s-0.25,0.83-0.42,1.2s-0.37,0.67-0.59,0.9c-0.23,0.23-0.48,0.34-0.78,0.34h-21.97 c-0.36,0-0.69-0.05-0.98-0.15c-0.29-0.1-0.54-0.27-0.73-0.51s-0.32-0.53-0.39-0.88c-0.07-0.35-0.06-0.77,0.03-1.27l7.64-38.13 c0.2-0.99,0.61-1.71,1.22-2.15s1.28-0.66,2.03-0.66h21.77C224.71,13.75,225,14.18,225,15.04z"></path> </g> <linearGradient id="SVGID_1_" gradientUnits="userSpaceOnUse" x1="0" y1="51.415" x2="279" y2="51.415" gradientTransform="matrix(1 0 0 -1 0 86.04)"> <stop offset="0" style="stop-color:#3FC5F1"></stop> <stop offset="0.1" style="stop-color:#6DBE45"></stop> <stop offset="0.215" style="stop-color:#F4EA17"></stop> <stop offset="0.325" style="stop-color:#ED2026"></stop> <stop offset="0.46" style="stop-color:#EA2D90"></stop> <stop offset="0.62" style="stop-color:#6353A3"></stop> <stop offset="0.696" style="stop-color:#387EC1"></stop> <stop offset="0.77" style="stop-color:#192752"></stop> </linearGradient> <polygon class="st1" points="249.56,64.73 238.46,0.02 226.75,64.73 0,64.73 0,69.23 230.51,69.23 238.34,25.94 245.77,69.23 279,69.23 279,64.73 "></polygon> </svg> 